# Blender 4.0.2
# www.blender.org
mtllib test3tri.mtl
o Cube.001
v 1.000000 1.000000 -1.000000
v 1.000000 -1.000000 -1.000000
v 1.000000 1.000000 1.000000
v 1.000000 -1.000000 1.000000
v -1.000000 1.000000 -1.000000
v -1.000000 -1.000000 -1.000000
v -1.000000 1.000000 1.000000
v -1.000000 -1.000000 1.000000
v 0.651963 3.716181 1.139281
v -1.121173 4.010967 0.262304
v 1.121173 2.368813 -0.262304
v -0.651963 2.663599 -1.139281
v 2.125632 7.204372 -1.565413
v 0.977295 6.952710 -3.183433
v 2.212864 5.221538 -1.318918
v 1.064528 4.969876 -2.936939
v 3.995563 5.144178 -2.572098
v 3.908331 7.127012 -2.818590
v 2.847227 4.892516 -4.190118
v 6.165835 7.565100 -5.748735
v 6.151290 6.010851 -7.007347
v 7.077900 4.890213 -5.634190
v -0.542077 -4.030864 -0.314525
v -0.328965 -3.707934 0.495619
v 0.328965 -4.151379 -0.495619
v 0.542077 -3.828448 0.314525
v -1.000000 -3.929656 -1.000000
v -1.000000 -3.929656 1.000000
v 1.000000 -3.929656 -1.000000
v 1.000000 -3.929656 1.000000
v -0.608399 -5.291570 0.205450
v -0.395287 -4.968639 1.015593
v 0.262643 -5.412084 0.024356
v 0.475756 -5.089154 0.834500
v -4.375383 -1.000000 -1.000000
v -4.375383 -1.000000 1.000000
v -4.375383 -3.929656 -1.000000
v -4.375383 -3.929656 1.000000
v -3.938649 0.631369 -5.821684
v -8.968828 -3.787778 -4.358466
v 7.121253 -3.443722 -0.552561
v 5.590971 -2.658431 6.443360
v 7.121253 -3.443722 0.447439
v 6.846753 -3.501910 5.120049
v 0.113282 -0.910232 -7.220111
vn 0.2350 0.1530 -0.9599
vn 0.2351 0.1530 -0.9599
vn -0.0000 -0.0000 1.0000
vn -1.0000 -0.0000 -0.0000
vn -0.0000 -0.0000 -1.0000
vn 1.0000 -0.0000 -0.0000
vn -0.4326 0.7370 0.5193
vn -0.2194 0.0836 0.9720
vn -0.9893 0.0208 -0.1447
vn -0.9893 0.0209 -0.1447
vn 0.9917 0.0281 0.1257
vn -0.4368 0.6121 -0.6592
vn 0.5084 -0.6119 -0.6059
vn 0.8538 -0.0374 0.5192
vn -0.8318 0.0527 -0.5525
vn 0.5549 -0.2221 0.8017
vn 0.8176 -0.0355 -0.5747
vn 0.0436 -0.9914 0.1232
vn 0.5742 0.1258 0.8090
vn 0.8862 0.2866 -0.3641
vn -0.4641 -0.5242 -0.7140
vn -0.3060 0.8571 -0.4144
vn 0.2374 0.3597 0.9024
vn 0.5299 -0.4351 -0.7280
vn 0.5299 -0.4351 -0.7279
vn 0.0885 -0.9903 0.1071
vn -0.0574 -0.9608 -0.2711
vn -0.0486 -0.9234 0.3808
vn -0.9702 0.1342 0.2017
vn 0.9702 -0.1342 -0.2017
vn -0.2374 -0.3597 -0.9024
vn -0.0000 1.0000 -0.0000
vn -0.0000 -1.0000 -0.0000
vn -0.3935 -0.9192 0.0117
vn -0.2194 0.0836 0.9721
vn 0.5084 -0.6120 -0.6059
vn -0.3061 0.8571 -0.4143
vn 0.5314 -0.4351 -0.7268
vn -0.7961 0.4644 0.3881
vt 0.625000 0.500000
vt 0.625000 0.250000
vt 0.625000 0.750000
vt 0.375000 1.000000
vt 0.375000 0.750000
vt 0.625000 0.000000
vt 0.375000 0.250000
vt 0.375000 0.000000
vt 0.375000 0.500000
vt 0.625000 1.000000
vt 0.875000 0.500000
vt 0.875000 0.750000
vt 0.306112 0.681112
vt 0.193888 0.681112
vt 0.193888 0.568888
vt 0.125000 0.750000
vt 0.125000 0.500000
vt 0.306112 0.568888
vt 0.375000 0.625000
vt 0.375000 0.687500
s 0
usemtl Material.001
f 1/1/1 12/2/2 11/1/1
f 3/3/3 8/4/3 4/5/3
f 7/6/4 6/7/4 8/8/4
f 2/9/5 27/7/5 6/7/5
f 1/1/6 4/5/6 2/9/6
f 5/2/5 2/9/5 6/7/5
f 10/10/7 13/3/7 14/10/7
f 7/10/8 9/3/8 10/10/8
f 7/6/9 12/2/10 5/2/10
f 3/3/11 11/1/11 9/3/11
f 16/11/12 18/3/12 19/11/12
f 11/1/13 16/2/13 15/1/13
f 9/3/14 15/1/14 13/3/14
f 10/6/15 16/2/15 12/2/15
f 16/11/16 20/3/16 13/3/16
f 19/11/17 18/3/17 17/1/17
f 16/2/18 17/1/18 15/1/18
f 15/1/19 18/3/19 13/3/19
f 22/11/20 21/12/20 20/3/20
f 16/2/21 21/6/21 22/2/21
f 14/10/22 20/3/22 21/10/22
f 26/13/23 32/14/23 34/13/23
f 8/4/3 30/5/3 4/5/3
f 40/7/24 39/7/25 35/7/25
f 4/5/6 29/9/6 2/9/6
f 23/15/26 28/16/26 27/17/26
f 25/18/27 27/17/27 29/9/27
f 24/14/27 30/5/27 28/16/27
f 26/13/26 29/9/26 30/5/26
f 33/18/28 32/14/28 31/15/28
f 23/15/29 32/14/29 24/14/29
f 26/13/30 33/18/30 25/18/30
f 25/18/31 31/15/31 23/15/31
f 6/7/32 36/8/32 8/8/32
f 8/4/3 38/4/3 28/4/3
f 28/16/33 37/17/33 27/17/33
f 43/19/34 44/20/34 4/5/34
f 1/1/1 5/2/1 12/2/1
f 3/3/3 7/10/3 8/4/3
f 7/6/4 5/2/4 6/7/4
f 2/9/5 29/9/5 27/7/5
f 1/1/6 3/3/6 4/5/6
f 5/2/5 1/1/5 2/9/5
f 10/10/7 9/3/7 13/3/7
f 7/10/35 3/3/35 9/3/35
f 7/6/10 10/6/10 12/2/10
f 3/3/11 1/1/11 11/1/11
f 16/11/12 13/3/12 18/3/12
f 11/1/36 12/2/13 16/2/13
f 9/3/14 11/1/14 15/1/14
f 10/6/15 14/6/15 16/2/15
f 16/11/16 22/11/16 20/3/16
f 16/2/18 19/2/18 17/1/18
f 15/1/19 17/1/19 18/3/19
f 16/2/21 14/6/21 21/6/21
f 14/10/37 13/3/22 20/3/22
f 26/13/23 24/14/23 32/14/23
f 8/4/3 28/4/3 30/5/3
f 35/7/24 6/7/24 27/7/24
f 27/7/24 37/7/24 35/7/24
f 37/7/24 40/7/24 35/7/38
f 4/5/6 30/5/6 29/9/6
f 23/15/26 24/14/26 28/16/26
f 25/18/27 23/15/27 27/17/27
f 24/14/27 26/13/27 30/5/27
f 26/13/26 25/18/26 29/9/26
f 33/18/28 34/13/28 32/14/28
f 23/15/29 31/15/29 32/14/29
f 26/13/30 34/13/30 33/18/30
f 25/18/31 33/18/31 31/15/31
f 38/8/39 36/8/39 37/7/39
f 36/8/39 35/7/39 37/7/39
f 6/7/32 35/7/32 36/8/32
f 8/4/3 36/4/3 38/4/3
f 28/16/33 38/16/33 37/17/33
f 42/5/34 4/5/34 44/20/34
f 4/5/34 2/9/34 43/19/34
f 2/9/34 41/9/34 43/19/34
l 6 45
