# Blender 4.0.2
# www.blender.org
mtllib bigmap.mtl
o Plane
v 13.300242 -31.942663 -139.042831
v 13.300242 -31.942135 -145.467438
v 25.349033 -32.594589 -137.568207
v 23.685678 -31.968132 -146.762100
v 17.206038 -5.476397 -124.304253
v 27.591475 -5.502803 -122.603737
v -14.861600 -18.521544 -135.527634
v -14.861600 -18.521017 -141.952240
v 7.560718 -14.120067 -164.822556
v 17.946154 -14.146064 -166.117218
v 27.368576 -3.242627 -136.578445
v 25.705221 -2.616171 -145.772339
v 67.394608 -5.363632 -122.603737
v 57.749283 -14.006892 -166.117218
v 67.171707 -3.103455 -136.578445
v 65.508354 -2.476999 -145.772339
v -44.716988 -3.070652 -284.542999
v -4.913857 -2.931481 -284.542999
v 69.591675 62.838161 42.465458
v 109.394806 62.977329 42.465458
v 513.872375 -9.700027 -91.282516
v 504.227020 -18.343287 -134.796005
v 513.649475 -7.439850 -105.257233
v 511.986115 -6.813397 -114.451126
v 441.563904 -7.267879 -253.221786
v 516.069458 58.501762 73.786674
v 555.872620 58.640930 73.786674
vn -0.0299 -0.9989 -0.0369
vn -0.1377 -0.4682 0.8728
vn -0.4302 -0.9027 -0.0001
vn -0.0843 -0.7454 -0.6613
vn 0.9814 -0.0614 -0.1817
vn 0.9973 -0.0677 -0.0269
vn 0.9428 -0.0538 -0.3291
vn -0.4149 -0.7273 -0.5467
vn -0.1149 -0.4703 0.8750
vn -0.3238 0.9401 -0.1066
vn 0.0030 -0.8705 0.4922
vn 0.0035 -0.9872 -0.1597
vn 0.0035 -0.9976 -0.0686
vn 0.0035 -0.9955 -0.0949
vn 0.0032 -0.9242 0.3818
vn -0.0033 -0.9958 -0.0914
vn -0.0438 -0.8619 0.5052
vn -0.0050 -0.9977 -0.0671
vn -0.0363 -0.9200 0.3901
vn 0.0016 -0.9872 -0.1597
vn 0.0034 -0.9827 -0.1850
vn 0.5046 0.7975 -0.3307
vt 0.862539 0.368230
vt 0.922076 0.368230
vt 0.922076 0.308693
vt 0.862539 0.308693
s 0
usemtl Material.001
f 4/1/1 3/2/1 1/3/1 2/4/1
f 1/3/2 3/2/2 6/2/2 5/3/2
f 2/4/3 1/3/3 7/3/3 8/4/3
f 4/1/4 2/4/4 9/4/4 10/1/4
f 3/2/5 4/1/5 12/1/5 11/2/5
f 3/2/6 11/2/6 6/2/6
f 4/1/7 10/1/7 12/1/7
f 2/4/8 8/4/8 9/4/8
f 1/3/9 5/3/9 7/3/9
f 7/3/10 5/3/10 9/4/10 8/4/10
f 12/1/11 10/1/11 14/1/11 16/1/11
f 6/2/12 11/2/12 15/2/12 13/2/12
f 11/2/13 12/1/13 16/1/13 15/2/13
f 14/1/14 10/1/14 17/1/14 18/1/14
f 6/2/15 13/2/15 20/2/15 19/2/15
f 14/1/16 18/1/16 25/1/16 22/1/16
f 16/1/17 14/1/17 22/1/17 24/1/17
f 15/2/18 16/1/18 24/1/18 23/2/18
f 20/2/19 13/2/19 21/2/19 27/2/19
f 13/2/20 15/2/20 23/2/20 21/2/20
f 19/2/21 20/2/21 27/2/21 26/2/21
f 24/1/22 22/1/22 25/1/22 26/2/22 27/2/22 21/2/22 23/2/22
