# Blender 4.0.2
# www.blender.org
mtllib bodyShop.mtl
o Plane
v -11.948766 0.000000 28.259136
v 9.396982 0.000000 28.259136
v -2.280627 0.411796 -9.508045
v -0.271156 0.411796 -9.508045
v -2.638840 5.843229 -10.469259
v -13.906807 25.314327 31.713327
v 11.355023 25.314327 31.713327
v 0.087057 5.843229 -10.469259
v -13.622554 0.020550 -12.349719
v -13.622554 -2.061151 31.211870
v 11.070770 -2.061151 31.211870
v 11.070770 0.020550 -12.349719
v -13.591584 27.223131 -12.295081
v -13.591584 27.223131 31.157244
v 11.039801 27.223131 31.157244
v 11.039801 27.223131 -12.295081
v 6.421747 18.770754 -38.276669
v -8.973530 18.770754 -38.276669
v 6.402442 35.238754 -38.267467
v -8.954226 35.238754 -38.267467
v 9.396982 0.000000 -9.396982
v -11.948766 0.000000 -9.396982
v 11.355023 25.314327 -12.851168
v -13.906807 25.314327 -12.851168
v 6.421747 18.823769 -66.687981
v -8.973530 18.823769 -66.687981
v 6.402442 35.291771 -66.678787
v -8.954226 35.291771 -66.678787
v 6.421747 18.834448 -72.414536
v -8.973530 18.834448 -72.414536
v 6.402442 23.764469 -72.405342
v -8.954226 23.764469 -72.405342
v 6.421747 16.131325 -66.702759
v -8.973530 16.131325 -66.702759
v 6.421747 10.909894 -72.429314
v -8.973530 10.909894 -72.429314
v 6.421747 5.013931 -66.713737
v -8.973530 5.013931 -66.713737
v 6.421747 5.024611 -72.440292
v -8.973530 5.024611 -72.440292
v 6.421747 17.625465 -45.628704
v -8.973530 17.625465 -45.628704
v 6.421747 4.974621 -45.639679
v -8.973530 4.974621 -45.639679
v 6.421747 12.379116 -37.995380
v -8.973530 12.379116 -37.995380
v 6.421747 4.960382 -38.006359
v -8.973530 4.960382 -38.006359
v 6.421747 0.295286 -45.648411
v -8.973530 0.295286 -45.648411
v 6.421747 0.281047 -38.015087
v -8.973530 0.281047 -38.015087
v 6.421747 -5.851442 -45.659874
v -8.973530 -5.851442 -45.659874
v 6.421747 -5.865681 -38.026554
v -8.973530 -5.865681 -38.026554
v 13.300242 2.236054 -89.922813
v -15.852026 2.236054 -89.922813
v 13.300242 -32.103539 -89.944519
v -15.852026 -32.103539 -89.944519
v 13.300242 -20.342943 -139.013672
v -15.852026 2.266785 -138.541870
v 13.300242 -31.942652 -139.042831
v -15.852026 -32.072807 -138.563583
v 13.300242 -20.342409 -145.438278
v -15.852026 2.271157 -145.458557
v 13.300242 -31.942123 -145.467438
v -15.852026 -32.068436 -145.480270
v 13.300242 2.266785 -138.541870
v 13.300242 -32.072807 -138.563583
v 13.300242 2.271157 -145.458557
v 13.300242 -32.068436 -145.480270
v 23.685678 -11.346092 -137.260040
v 23.685678 -31.969059 -137.342316
v 23.685678 -11.345144 -146.679840
v 23.685678 -31.968121 -146.762100
v -0.289297 0.000000 -9.396982
v -2.438272 0.000000 -9.396982
vn -0.0000 -1.0000 -0.0000
vn -0.9970 0.0771 -0.0000
vn 0.9970 0.0771 -0.0000
vn -0.0000 1.0000 0.0070
vn -0.0000 0.1352 -0.9908
vn -0.0000 -0.9989 -0.0477
vn -0.0000 1.0000 -0.0000
vn 1.0000 0.0011 0.0001
vn -1.0000 0.0011 -0.0000
vn -0.9845 0.0015 -0.1755
vn -0.0000 0.0019 1.0000
vn -0.0000 1.0000 0.0019
vn -0.0000 0.9555 0.2949
vn -0.0000 -0.8103 -0.5860
vn 0.9845 0.0013 -0.1754
vn 0.8699 -0.0000 -0.4931
vn 0.8700 -0.0000 0.4931
vn -0.0000 -0.1214 -0.9926
vn 0.0039 -0.1745 -0.9846
vn -0.0279 -0.1373 -0.9901
vn -1.0000 0.0039 -0.0000
vn 1.0000 0.0012 -0.0000
vn -0.0000 -1.0000 -0.0019
vn -1.0000 0.0012 -0.0000
vn -0.0000 0.0019 -1.0000
vn -0.0000 0.4449 -0.8956
vn 1.0000 0.0012 -0.0024
vn 1.0000 -0.0000 -0.0000
vn -1.0000 -0.0000 -0.0000
vn -0.0000 -0.0055 1.0000
vn -0.0000 0.8241 0.5664
vn -0.0000 0.9975 -0.0707
vn -0.0000 -0.0015 1.0000
vn -0.0000 -0.0019 1.0000
vn -0.0000 0.9990 0.0438
vn -0.0000 -1.0000 -0.0006
vn 0.9881 -0.0003 0.1535
vn -0.9881 -0.0001 0.1535
vn -0.0000 -0.8602 0.5099
vn -0.0000 1.0000 0.0006
vn -0.0000 0.0006 -1.0000
vn -0.0025 -1.0000 -0.0001
vn 1.0000 -0.0000 0.0001
vn -0.1237 0.0025 -0.9923
vn -0.6548 0.7558 0.0001
vn -0.1632 -0.0039 0.9866
vn -0.0000 0.2604 0.9655
vn -0.0000 -0.2604 -0.9655
vn 1.0000 0.0011 -0.0000
vn -1.0000 0.0011 0.0001
vn -0.9845 0.0013 -0.1754
vn 0.9845 0.0015 -0.1755
vn -0.8699 -0.0000 0.4931
vn -0.8700 -0.0000 -0.4931
vn 0.0279 -0.1373 -0.9901
vn -0.0039 -0.1745 -0.9846
vn -1.0000 0.0012 -0.0024
vn 1.0000 0.0039 -0.0000
vn 0.9881 -0.0001 0.1535
vn -0.9881 -0.0003 0.1535
vn -0.1221 0.0040 -0.9925
vn -0.1616 -0.0025 0.9869
vt 0.491307 0.124078
vt 0.247155 0.245153
vt 0.491307 0.245153
vt 0.247155 0.247155
vt 0.368230 0.491307
vt 0.368230 0.247155
vt 0.491307 0.001001
vt 0.247155 0.122076
vt 0.491307 0.122076
vt 0.985616 0.247155
vt 0.998999 0.301993
vt 0.998999 0.312530
vt 0.124078 0.739463
vt 0.245153 0.860537
vt 0.245153 0.739463
vt 0.614384 0.491307
vt 0.370232 0.370232
vt 0.370232 0.491307
vt 0.614384 0.493309
vt 0.493309 0.737461
vt 0.614384 0.737461
vt 0.491307 0.614384
vt 0.247155 0.493309
vt 0.247155 0.614384
vt 0.860537 0.491307
vt 0.739463 0.247155
vt 0.739463 0.491307
vt 0.247155 0.739463
vt 0.368230 0.860537
vt 0.368230 0.739463
vt 0.370232 0.739463
vt 0.491307 0.860537
vt 0.491307 0.739463
vt 0.739463 0.493309
vt 0.860537 0.614384
vt 0.860537 0.493309
vt 0.493309 0.739463
vt 0.614384 0.860537
vt 0.614384 0.739463
vt 0.245153 0.616386
vt 0.001001 0.737461
vt 0.245153 0.737461
vt 0.737461 0.739463
vt 0.616386 0.860537
vt 0.737461 0.860537
vt 0.998999 0.124078
vt 0.985616 0.245153
vt 0.998999 0.245153
vt 0.983614 0.968230
vt 0.862539 0.954847
vt 0.862539 0.968230
vt 0.893309 0.493309
vt 0.952845 0.614384
vt 0.952845 0.493309
vt 0.739463 0.616386
vt 0.860537 0.737461
vt 0.860537 0.616386
vt 0.860537 0.739463
vt 0.739463 0.860537
vt 0.860537 0.860537
vt 0.122076 0.801001
vt 0.062539 0.860537
vt 0.122076 0.860537
vt 0.122076 0.862539
vt 0.001001 0.983614
vt 0.122076 0.983614
vt 0.862539 0.001001
vt 0.983614 0.122076
vt 0.983614 0.001001
vt 0.862539 0.124078
vt 0.983614 0.245153
vt 0.983614 0.124078
vt 0.737461 0.952845
vt 0.616386 0.924078
vt 0.616386 0.952845
vt 0.922076 0.739463
vt 0.862539 0.860537
vt 0.922076 0.860537
vt 0.001001 0.801001
vt 0.060537 0.860537
vt 0.060537 0.801001
vt 0.614384 0.983614
vt 0.493309 0.924078
vt 0.493309 0.983614
vt 0.922076 0.247155
vt 0.893309 0.306691
vt 0.922076 0.306691
vt 0.891307 0.970232
vt 0.862539 0.998999
vt 0.891307 0.998999
vt 0.893309 0.970232
vt 0.922076 0.998999
vt 0.922076 0.970232
vt 0.998999 0.001001
vt 0.985616 0.122076
vt 0.998999 0.122076
vt 0.860537 0.983614
vt 0.739463 0.954847
vt 0.739463 0.983614
vt 0.983614 0.739463
vt 0.954847 0.860537
vt 0.983614 0.860537
vt 0.862539 0.247155
vt 0.891307 0.306691
vt 0.891307 0.247155
vt 0.860537 0.862539
vt 0.739463 0.922076
vt 0.860537 0.922076
vt 0.983614 0.370232
vt 0.924078 0.491307
vt 0.983614 0.491307
vt 0.124078 0.862539
vt 0.245153 0.983614
vt 0.245153 0.862539
vt 0.614384 0.922076
vt 0.493309 0.862539
vt 0.493309 0.922076
vt 0.247155 0.862539
vt 0.368230 0.983614
vt 0.368230 0.862539
vt 0.952845 0.739463
vt 0.924078 0.860537
vt 0.952845 0.860537
vt 0.062539 0.739463
vt 0.122076 0.798999
vt 0.122076 0.739463
vt 0.860537 0.952845
vt 0.739463 0.924078
vt 0.739463 0.952845
vt 0.983614 0.308693
vt 0.924078 0.368230
vt 0.983614 0.368230
vt 0.031770 0.770232
vt 0.060537 0.798999
vt 0.060537 0.770232
vt 0.001001 0.770232
vt 0.029768 0.798999
vt 0.029768 0.770232
vt 0.983614 0.493309
vt 0.954847 0.614384
vt 0.983614 0.614384
vt 0.031770 0.739463
vt 0.060537 0.768230
vt 0.060537 0.739463
vt 0.737461 0.983614
vt 0.616386 0.954847
vt 0.616386 0.983614
vt 0.616386 0.247155
vt 0.737461 0.491307
vt 0.737461 0.247155
vt 0.001001 0.739463
vt 0.029768 0.768230
vt 0.029768 0.739463
vt 0.983614 0.891307
vt 0.862539 0.862539
vt 0.862539 0.891307
vt 0.616386 0.001001
vt 0.737461 0.245153
vt 0.737461 0.001001
vt 0.491307 0.616386
vt 0.247155 0.737461
vt 0.491307 0.737461
vt 0.614384 0.001001
vt 0.493309 0.245153
vt 0.614384 0.245153
vt 0.614384 0.368230
vt 0.370232 0.247155
vt 0.370232 0.368230
vt 0.891307 0.493309
vt 0.862539 0.737461
vt 0.891307 0.737461
vt 0.001001 0.001001
vt 0.245153 0.245153
vt 0.245153 0.001001
vt 0.245153 0.493309
vt 0.001001 0.614384
vt 0.245153 0.614384
vt 0.001001 0.247155
vt 0.245153 0.491307
vt 0.245153 0.247155
vt 0.739463 0.001001
vt 0.860537 0.245153
vt 0.860537 0.001001
vt 0.983614 0.922076
vt 0.862539 0.893309
vt 0.862539 0.922076
vt 0.922076 0.308693
vt 0.862539 0.368230
vt 0.922076 0.368230
vt 0.983614 0.616386
vt 0.954847 0.737461
vt 0.983614 0.737461
vt 0.737461 0.922076
vt 0.616386 0.862539
vt 0.616386 0.922076
vt 0.952845 0.737461
vt 0.893309 0.616386
vt 0.893309 0.737461
vt 0.983614 0.952845
vt 0.862539 0.924078
vt 0.862539 0.952845
vt 0.991307 0.370232
vt 0.985616 0.398999
vt 0.991307 0.398999
vt 0.491307 0.922076
vt 0.370232 0.862539
vt 0.370232 0.922076
vt 0.922076 0.370232
vt 0.862539 0.491307
vt 0.922076 0.491307
vt 0.924078 0.247155
vt 0.983614 0.306691
vt 0.983614 0.247155
vt 0.370232 0.983614
vt 0.491307 0.924078
vt 0.370232 0.924078
vt 0.683516 0.493309
vt 0.737461 0.737461
vt 0.616386 0.737461
vt 0.983614 0.971233
vt 0.925079 0.975922
vt 0.983614 0.975922
vt 0.924078 0.970232
vt 0.982613 0.970232
vt 0.924078 0.974921
vt 0.247155 0.124078
vt 0.247155 0.491307
vt 0.247155 0.001001
vt 0.998999 0.360023
vt 0.985616 0.368230
vt 0.998999 0.255362
vt 0.124078 0.860537
vt 0.614384 0.370232
vt 0.493309 0.493309
vt 0.491307 0.493309
vt 0.860537 0.247155
vt 0.247155 0.860537
vt 0.370232 0.860537
vt 0.739463 0.614384
vt 0.493309 0.860537
vt 0.001001 0.616386
vt 0.616386 0.739463
vt 0.985616 0.124078
vt 0.983614 0.954847
vt 0.893309 0.614384
vt 0.739463 0.737461
vt 0.739463 0.739463
vt 0.062539 0.801001
vt 0.001001 0.862539
vt 0.862539 0.122076
vt 0.862539 0.245153
vt 0.737461 0.924078
vt 0.862539 0.739463
vt 0.001001 0.860537
vt 0.614384 0.924078
vt 0.893309 0.247155
vt 0.862539 0.970232
vt 0.893309 0.998999
vt 0.985616 0.001001
vt 0.860537 0.954847
vt 0.954847 0.739463
vt 0.862539 0.306691
vt 0.739463 0.862539
vt 0.924078 0.370232
vt 0.124078 0.983614
vt 0.614384 0.862539
vt 0.247155 0.983614
vt 0.924078 0.739463
vt 0.062539 0.798999
vt 0.860537 0.924078
vt 0.924078 0.308693
vt 0.031770 0.798999
vt 0.001001 0.798999
vt 0.954847 0.493309
vt 0.031770 0.768230
vt 0.737461 0.954847
vt 0.616386 0.491307
vt 0.001001 0.768230
vt 0.983614 0.862539
vt 0.616386 0.245153
vt 0.247155 0.616386
vt 0.493309 0.001001
vt 0.614384 0.247155
vt 0.862539 0.493309
vt 0.001001 0.245153
vt 0.001001 0.493309
vt 0.001001 0.491307
vt 0.739463 0.245153
vt 0.983614 0.893309
vt 0.862539 0.308693
vt 0.954847 0.616386
vt 0.737461 0.862539
vt 0.952845 0.616386
vt 0.983614 0.924078
vt 0.985616 0.370232
vt 0.491307 0.862539
vt 0.862539 0.370232
vt 0.924078 0.306691
vt 0.491307 0.983614
vt 0.616386 0.493309
vt 0.671327 0.493309
vt 0.737460 0.493309
s 0
usemtl Material.001
f 23/1/1 6/2/1 24/3/1
f 7/4/2 21/5/2 2/6/2
f 24/7/3 1/8/3 22/9/3
f 9/10/4 78/11/4 77/12/4
f 6/13/5 2/14/5 1/15/5
f 9/16/6 11/17/6 10/18/6
f 14/19/7 16/20/7 13/21/7
f 12/22/8 15/23/8 11/24/8
f 9/25/9 14/26/9 13/27/9
f 13/28/10 18/29/10 9/30/10
f 11/31/11 14/32/11 10/33/11
f 19/34/12 28/35/12 20/36/12
f 16/37/13 20/38/13 13/39/13
f 9/40/14 17/41/14 12/42/14
f 16/43/15 17/44/15 19/45/15
f 13/46/16 22/47/16 9/48/16
f 12/49/17 23/50/17 16/51/17
f 5/52/18 23/53/18 8/54/18
f 8/55/19 21/56/19 4/57/19
f 5/58/20 22/59/20 24/60/20
f 26/61/21 32/62/21 30/63/21
f 19/64/22 25/65/22 27/66/22
f 18/67/23 25/68/23 17/69/23
f 20/70/24 26/71/24 18/72/24
f 30/73/25 31/74/25 29/75/25
f 27/76/26 32/77/26 28/78/26
f 25/79/27 31/80/27 27/81/27
f 29/82/25 36/83/25 30/84/25
f 35/85/28 37/86/28 39/87/28
f 29/88/28 33/89/28 35/90/28
f 30/91/29 34/92/29 26/93/29
f 26/94/30 33/95/30 25/96/30
f 38/97/23 39/98/23 37/99/23
f 35/100/25 40/101/25 36/102/25
f 36/103/29 38/104/29 34/105/29
f 33/106/28 43/107/28 37/108/28
f 42/109/31 45/110/31 41/111/31
f 37/112/23 44/113/23 38/114/23
f 34/115/29 44/116/29 42/117/29
f 34/118/32 41/119/32 33/120/32
f 46/121/33 47/122/33 45/123/33
f 44/124/29 46/125/29 42/126/29
f 48/127/34 51/128/34 47/129/34
f 43/130/28 45/131/28 47/132/28
f 50/133/29 56/134/29 52/135/29
f 44/136/29 52/137/29 48/138/29
f 43/139/25 50/140/25 44/141/25
f 47/142/28 49/143/28 43/144/28
f 53/145/23 56/146/23 54/147/23
f 49/148/35 58/149/35 50/150/35
f 51/151/28 53/152/28 49/153/28
f 52/154/34 55/155/34 51/156/34
f 60/157/36 70/158/36 59/159/36
f 53/160/37 57/161/37 49/162/37
f 54/163/38 58/164/38 60/165/38
f 53/166/39 60/167/39 59/168/39
f 62/169/29 68/170/29 64/171/29
f 58/172/29 64/173/29 60/174/29
f 57/175/40 62/176/40 58/177/40
f 59/178/28 69/179/28 57/180/28
f 71/181/41 68/182/41 66/183/41
f 69/184/40 66/185/40 62/186/40
f 63/187/42 76/188/42 74/189/42
f 64/190/36 72/191/36 70/192/36
f 61/193/28 70/194/28 63/195/28
f 65/196/43 72/197/43 71/198/43
f 61/199/28 71/200/28 69/201/28
f 63/202/28 72/203/28 67/204/28
f 74/205/28 75/206/28 73/207/28
f 65/208/44 76/209/44 67/210/44
f 61/211/45 75/212/45 65/213/45
f 61/214/46 74/215/46 73/216/46
f 78/217/7 1/218/7 2/219/7
f 77/220/47 21/221/47 4/222/47
f 78/223/48 22/224/48 3/225/48
f 23/1/1 7/226/1 6/2/1
f 7/4/2 23/227/2 21/5/2
f 24/7/3 6/228/3 1/8/3
f 21/229/4 12/230/4 9/10/4
f 9/10/4 22/231/4 78/11/4
f 77/12/4 21/229/4 9/10/4
f 6/13/5 7/232/5 2/14/5
f 9/16/6 12/233/6 11/17/6
f 14/19/7 15/234/7 16/20/7
f 12/22/49 16/235/49 15/23/49
f 9/25/50 10/236/50 14/26/50
f 13/28/51 20/237/51 18/29/51
f 11/31/11 15/238/11 14/32/11
f 19/34/12 27/239/12 28/35/12
f 16/37/13 19/240/13 20/38/13
f 9/40/14 18/241/14 17/41/14
f 16/43/52 12/242/52 17/44/52
f 13/46/53 24/243/53 22/47/53
f 12/49/54 21/244/54 23/50/54
f 5/52/18 24/245/18 23/53/18
f 8/55/55 23/246/55 21/56/55
f 5/58/56 3/247/56 22/59/56
f 26/61/57 28/248/57 32/62/57
f 19/64/22 17/249/22 25/65/22
f 18/67/23 26/250/23 25/68/23
f 20/70/24 28/251/24 26/71/24
f 30/73/25 32/252/25 31/74/25
f 27/76/26 31/253/26 32/77/26
f 25/79/58 29/254/58 31/80/58
f 29/82/25 35/255/25 36/83/25
f 35/85/28 33/256/28 37/86/28
f 29/88/28 25/257/28 33/89/28
f 30/91/29 36/258/29 34/92/29
f 26/94/30 34/259/30 33/95/30
f 38/97/23 40/260/23 39/98/23
f 35/100/25 39/261/25 40/101/25
f 36/103/29 40/262/29 38/104/29
f 33/106/28 41/263/28 43/107/28
f 42/109/31 46/264/31 45/110/31
f 37/112/23 43/265/23 44/113/23
f 34/115/29 38/266/29 44/116/29
f 34/118/32 42/267/32 41/119/32
f 46/121/33 48/268/33 47/122/33
f 44/124/29 48/269/29 46/125/29
f 48/127/34 52/270/34 51/128/34
f 43/130/28 41/271/28 45/131/28
f 50/133/29 54/272/29 56/134/29
f 44/136/29 50/273/29 52/137/29
f 43/139/25 49/274/25 50/140/25
f 47/142/28 51/275/28 49/143/28
f 53/145/23 55/276/23 56/146/23
f 49/148/35 57/277/35 58/149/35
f 51/151/28 55/278/28 53/152/28
f 52/154/34 56/279/34 55/155/34
f 60/157/36 64/280/36 70/158/36
f 53/160/59 59/281/59 57/161/59
f 54/163/60 50/282/60 58/164/60
f 53/166/39 54/283/39 60/167/39
f 62/169/29 66/284/29 68/170/29
f 58/172/29 62/285/29 64/173/29
f 57/175/40 69/286/40 62/176/40
f 59/178/28 70/287/28 69/179/28
f 71/181/41 72/288/41 68/182/41
f 69/184/40 71/289/40 66/185/40
f 63/187/42 67/290/42 76/188/42
f 64/190/36 68/291/36 72/191/36
f 61/193/28 69/292/28 70/194/28
f 65/196/28 67/293/28 72/197/28
f 61/199/28 65/294/28 71/200/28
f 63/202/28 70/295/28 72/203/28
f 74/205/28 76/296/28 75/206/28
f 65/208/61 75/297/61 76/209/61
f 61/211/45 73/298/45 75/212/45
f 61/214/62 63/299/62 74/215/62
f 2/219/7 21/300/7 77/301/7
f 78/217/7 22/302/7 1/218/7
f 2/219/7 77/301/7 78/217/7
o Plane.001
v 1.785042 -0.494710 16.071815
v 1.785042 -0.494710 14.759710
v 5.984399 -0.494710 16.071815
v 2.321614 0.505289 15.776138
v 1.785042 1.505289 16.071815
v 4.628357 0.505289 15.776138
v 2.321614 0.505289 15.055387
v 1.785042 1.505289 14.759710
v 4.628357 0.505289 15.055387
v 5.984399 -0.494710 14.759710
v 5.984399 1.505289 14.759710
v 5.984399 1.505289 16.071815
vn -0.8812 0.4728 -0.0000
vn -0.0000 -1.0000 -0.0000
vn -0.0000 0.2835 0.9590
vn -0.0000 -0.2835 0.9590
vn -0.8812 -0.4728 -0.0000
vn -0.0000 0.2835 -0.9590
vn -0.0000 -0.2835 -0.9590
vn 0.5935 0.8048 -0.0000
vn 0.5935 -0.8048 -0.0000
vn -0.0000 1.0000 -0.0000
vt 0.500000 0.000000
vt 0.375000 0.250000
vt 0.375000 0.000000
vt 0.375000 0.500000
vt 0.125000 0.750000
vt 0.125000 0.500000
vt 0.500000 0.750000
vt 0.375000 1.000000
vt 0.375000 0.750000
vt 0.625000 1.000000
vt 0.500000 1.000000
vt 0.625000 0.250000
vt 0.500000 0.250000
vt 0.500000 0.500000
vt 0.625000 0.500000
vt 0.875000 0.500000
vt 0.625000 0.750000
vt 0.625000 0.000000
vt 0.875000 0.750000
s 0
f 82/303/63 80/304/63 79/305/63
f 88/306/64 79/307/64 80/308/64
f 84/309/65 79/310/65 81/311/65
f 84/309/66 83/312/66 82/313/66
f 82/303/67 86/314/67 85/315/67
f 80/304/68 87/316/68 88/306/68
f 86/314/69 87/316/69 85/315/69
f 88/306/70 84/309/70 81/311/70
f 89/317/71 84/309/71 87/316/71
f 86/318/72 90/319/72 89/317/72
f 82/303/63 85/315/63 80/304/63
f 88/306/64 81/311/64 79/307/64
f 84/309/65 82/313/65 79/310/65
f 84/309/66 90/319/66 83/312/66
f 82/303/67 83/320/67 86/314/67
f 80/304/68 85/315/68 87/316/68
f 86/314/69 89/317/69 87/316/69
f 88/306/70 87/316/70 84/309/70
f 89/317/71 90/319/71 84/309/71
f 86/318/72 83/321/72 90/319/72
o Cube
v 5.862105 -0.328245 28.960104
v 6.275138 6.028923 29.512749
v -8.895803 -0.328245 28.858927
v -9.338964 6.028923 29.405703
v 5.875818 -0.328245 26.959967
v 6.289645 6.028923 27.396574
v -8.882091 -0.328245 26.858789
v -9.324455 6.028923 27.289528
vn -0.0068 -0.0862 0.9963
vn -0.9976 -0.0690 -0.0068
vn 0.0068 0.0681 -0.9977
vn 0.9978 -0.0654 0.0068
vn -0.0000 -1.0000 -0.0000
vn -0.0000 1.0000 -0.0000
vt 0.625000 0.000000
vt 0.375000 0.250000
vt 0.375000 0.000000
vt 0.625000 0.500000
vt 0.375000 0.500000
vt 0.625000 0.750000
vt 0.375000 0.750000
vt 0.375000 1.000000
vt 0.125000 0.750000
vt 0.125000 0.500000
vt 0.875000 0.500000
vt 0.625000 0.250000
vt 0.625000 1.000000
vt 0.875000 0.750000
s 0
f 92/322/73 93/323/73 91/324/73
f 93/323/74 98/325/74 97/326/74
f 97/326/75 96/327/75 95/328/75
f 96/327/76 91/329/76 95/328/76
f 97/326/77 91/330/77 93/331/77
f 94/332/78 96/327/78 98/325/78
f 92/322/73 94/333/73 93/323/73
f 93/323/74 94/333/74 98/325/74
f 97/326/75 98/325/75 96/327/75
f 96/327/76 92/334/76 91/329/76
f 97/326/77 95/328/77 91/330/77
f 94/332/78 92/335/78 96/327/78
o Cube.001
v 7.879294 -0.328245 24.017181
v 8.409356 6.028923 24.283060
v 7.879294 -0.328245 17.342388
v 8.409356 6.028923 17.221022
v 9.879294 -0.328245 24.017181
v 10.525388 6.028923 24.283060
v 9.879294 -0.328245 17.342388
v 10.525388 6.028923 17.221022
vn -0.9965 0.0831 -0.0000
vn -0.0000 -0.0191 -0.9998
vn 0.9949 -0.1011 -0.0000
vn -0.0000 -0.0418 0.9991
vn -0.0000 -1.0000 -0.0000
vn -0.0000 1.0000 -0.0000
vt 0.375000 0.000000
vt 0.625000 0.250000
vt 0.375000 0.250000
vt 0.375000 0.500000
vt 0.625000 0.500000
vt 0.375000 0.750000
vt 0.625000 1.000000
vt 0.375000 1.000000
vt 0.125000 0.750000
vt 0.125000 0.500000
vt 0.875000 0.500000
vt 0.625000 0.750000
vt 0.625000 0.000000
vt 0.875000 0.750000
s 0
f 99/336/79 102/337/79 101/338/79
f 102/337/80 105/339/80 101/338/80
f 106/340/81 103/341/81 105/339/81
f 103/341/82 100/342/82 99/343/82
f 105/339/83 99/344/83 101/345/83
f 102/346/84 104/347/84 106/340/84
f 99/336/79 100/348/79 102/337/79
f 102/337/80 106/340/80 105/339/80
f 106/340/81 104/347/81 103/341/81
f 103/341/82 104/347/82 100/342/82
f 105/339/83 103/341/83 99/344/83
f 102/346/84 100/349/84 104/347/84
o Cube.002
v -12.298226 -0.328245 17.307774
v -12.938781 6.028923 17.184402
v -12.298226 -0.328245 10.632979
v -12.938781 6.028923 10.122364
v -10.298226 -0.328245 17.307774
v -10.822749 6.028923 17.184402
v -10.298226 -0.328245 10.632979
v -10.822749 6.028923 10.122364
vn -0.9950 -0.1003 -0.0000
vn -0.0000 -0.0801 -0.9968
vn 0.9966 0.0822 -0.0000
vn -0.0000 0.0194 0.9998
vn -0.0000 -1.0000 -0.0000
vn -0.0000 1.0000 -0.0000
vt 0.625000 0.000000
vt 0.375000 0.250000
vt 0.375000 0.000000
vt 0.625000 0.500000
vt 0.375000 0.500000
vt 0.625000 0.750000
vt 0.375000 0.750000
vt 0.375000 1.000000
vt 0.125000 0.750000
vt 0.125000 0.500000
vt 0.875000 0.500000
vt 0.625000 0.250000
vt 0.625000 1.000000
vt 0.875000 0.750000
s 0
f 108/350/85 109/351/85 107/352/85
f 109/351/86 114/353/86 113/354/86
f 113/354/87 112/355/87 111/356/87
f 112/355/88 107/357/88 111/356/88
f 113/354/89 107/358/89 109/359/89
f 110/360/90 112/355/90 114/353/90
f 108/350/85 110/361/85 109/351/85
f 109/351/86 110/361/86 114/353/86
f 113/354/87 114/353/87 112/355/87
f 112/355/88 108/362/88 107/357/88
f 113/354/89 111/356/89 107/358/89
f 110/360/90 108/363/90 112/355/90
o Cube.003
v 7.941148 -0.328245 17.269609
v 8.474797 6.028923 17.144022
v 7.941148 -0.328245 10.594814
v 8.474797 6.028923 10.081984
v 9.941148 -0.328245 17.269609
v 10.590829 6.028923 17.144022
v 9.941148 -0.328245 10.594814
v 10.590829 6.028923 10.081984
vn -0.9965 0.0837 -0.0000
vn -0.0000 -0.0804 -0.9968
vn 0.9948 -0.1017 -0.0000
vn -0.0000 0.0198 0.9998
vn -0.0000 -1.0000 -0.0000
vn -0.0000 1.0000 -0.0000
vt 0.625000 0.000000
vt 0.375000 0.250000
vt 0.375000 0.000000
vt 0.625000 0.250000
vt 0.375000 0.500000
vt 0.625000 0.750000
vt 0.375000 0.750000
vt 0.625000 1.000000
vt 0.375000 1.000000
vt 0.125000 0.750000
vt 0.125000 0.500000
vt 0.875000 0.500000
vt 0.625000 0.500000
vt 0.875000 0.750000
s 0
f 116/364/91 117/365/91 115/366/91
f 118/367/92 121/368/92 117/365/92
f 121/368/93 120/369/93 119/370/93
f 119/370/94 116/371/94 115/372/94
f 121/368/95 115/373/95 117/374/95
f 118/375/96 120/369/96 122/376/96
f 116/364/91 118/367/91 117/365/91
f 118/367/92 122/376/92 121/368/92
f 121/368/93 122/376/93 120/369/93
f 119/370/94 120/369/94 116/371/94
f 121/368/95 119/370/95 115/373/95
f 118/375/96 116/377/96 120/369/96
o Cube.004
v -12.298226 -0.328245 24.017181
v -12.938781 6.028923 24.283060
v -12.298226 -0.328245 17.342388
v -12.938781 6.028923 17.221022
v -10.298226 -0.328245 24.017181
v -10.822749 6.028923 24.283060
v -10.298226 -0.328245 17.342388
v -10.822749 6.028923 17.221022
vn -0.9950 -0.1003 -0.0000
vn -0.0000 -0.0191 -0.9998
vn 0.9966 0.0822 -0.0000
vn -0.0000 -0.0418 0.9991
vn -0.0000 -1.0000 -0.0000
vn -0.0000 1.0000 -0.0000
vt 0.375000 0.000000
vt 0.625000 0.250000
vt 0.375000 0.250000
vt 0.625000 0.500000
vt 0.375000 0.500000
vt 0.375000 0.750000
vt 0.625000 0.750000
vt 0.375000 1.000000
vt 0.125000 0.750000
vt 0.125000 0.500000
vt 0.875000 0.500000
vt 0.625000 0.000000
vt 0.625000 1.000000
vt 0.875000 0.750000
s 0
f 123/378/97 126/379/97 125/380/97
f 125/380/98 130/381/98 129/382/98
f 130/381/99 127/383/99 129/382/99
f 128/384/100 123/385/100 127/383/100
f 129/382/101 123/386/101 125/387/101
f 126/388/102 128/384/102 130/381/102
f 123/378/97 124/389/97 126/379/97
f 125/380/98 126/379/98 130/381/98
f 130/381/99 128/384/99 127/383/99
f 128/384/100 124/390/100 123/385/100
f 129/382/101 127/383/101 123/386/101
f 126/388/102 124/391/102 128/384/102
