# Blender 4.0.2
# www.blender.org
mtllib enemt.mtl
o Plane
v -11.948766 0.000000 28.259136
v 9.396982 0.000000 28.259136
v -11.948766 0.000000 -9.396982
v 9.396982 0.000000 -9.396982
v -13.906807 25.314327 -12.851168
v -13.906807 25.314327 31.713327
v 11.355023 25.314327 31.713327
v 11.355023 25.314327 -12.851168
v -13.622554 -2.061151 -12.349719
v -13.622554 -2.061151 31.211870
v 11.070770 -2.061151 31.211870
v 11.070770 -2.061151 -12.349719
v -13.591584 27.223131 -12.295081
v -13.591584 27.223131 31.157244
v 11.039801 27.223131 31.157244
v 11.039801 27.223131 -12.295081
vn -0.0000 1.0000 -0.0000
vn -0.0000 -1.0000 -0.0000
vn -0.9970 0.0771 -0.0000
vn 0.9970 0.0771 -0.0000
vn -0.0000 0.1352 0.9908
vn -0.0000 0.1352 -0.9908
vn 1.0000 0.0011 -0.0000
vn -1.0000 0.0011 -0.0000
vn -0.0000 0.0019 -1.0000
vn -0.0000 0.0019 1.0000
vt 0.000000 0.000000
vt 1.000000 0.000000
vt 1.000000 1.000000
vt 0.000000 1.000000
s 0
usemtl Material.001
f 1/1/1 2/2/1 4/3/1 3/4/1
f 5/4/2 8/3/2 7/2/2 6/1/2
f 2/2/3 7/2/3 8/3/3 4/3/3
f 3/4/4 5/4/4 6/1/4 1/1/4
f 4/3/5 8/3/5 5/4/5 3/4/5
f 1/1/6 6/1/6 7/2/6 2/2/6
f 10/1/2 9/4/2 12/3/2 11/2/2
f 13/4/1 14/1/1 15/2/1 16/3/1
f 11/2/7 12/3/7 16/3/7 15/2/7
f 9/4/8 10/1/8 14/1/8 13/4/8
f 12/3/9 9/4/9 13/4/9 16/3/9
f 10/1/10 11/2/10 15/2/10 14/1/10
o Plane.001
v 1.785042 -0.494710 16.071815
v 1.785042 -0.494710 14.759710
v 5.984399 -0.494710 16.071815
v 2.321614 0.505289 15.776138
v 1.785042 1.505289 16.071815
v 4.628357 0.505289 15.776138
v 2.321614 0.505289 15.055387
v 1.785042 1.505289 14.759710
v 4.628357 0.505289 15.055387
v 5.984399 -0.494710 14.759710
v 5.984399 1.505289 14.759710
v 5.984399 1.505289 16.071815
vn -0.8812 0.4728 -0.0000
vn -0.0000 -1.0000 -0.0000
vn -0.0000 0.2835 0.9590
vn -0.0000 -0.2835 0.9590
vn -0.8812 -0.4728 -0.0000
vn -0.0000 0.2835 -0.9590
vn -0.0000 -0.2835 -0.9590
vn 0.5935 0.8048 -0.0000
vn 0.5935 -0.8048 -0.0000
vn -0.0000 1.0000 -0.0000
vt 0.375000 0.000000
vt 0.500000 0.000000
vt 0.500000 0.250000
vt 0.375000 0.250000
vt 0.125000 0.500000
vt 0.375000 0.500000
vt 0.375000 0.750000
vt 0.125000 0.750000
vt 0.500000 0.750000
vt 0.500000 1.000000
vt 0.375000 1.000000
vt 0.625000 0.750000
vt 0.625000 1.000000
vt 0.625000 0.000000
vt 0.625000 0.250000
vt 0.500000 0.500000
vt 0.625000 0.500000
vt 0.875000 0.500000
vt 0.875000 0.750000
s 0
usemtl Material.001
f 17/5/11 20/6/11 23/7/11 18/8/11
f 18/9/12 26/10/12 19/11/12 17/12/12
f 19/11/13 22/13/13 20/14/13 17/15/13
f 22/13/14 28/16/14 21/17/14 20/14/14
f 20/6/15 21/18/15 24/19/15 23/7/15
f 18/8/16 23/7/16 25/20/16 26/10/16
f 23/7/17 24/19/17 27/21/17 25/20/17
f 26/10/18 25/20/18 22/13/18 19/11/18
f 25/20/19 27/21/19 28/16/19 22/13/19
f 27/21/20 24/22/20 21/23/20 28/16/20
o Cube
v 5.862105 -0.328245 28.960104
v 6.275138 6.028923 29.512749
v -8.895803 -0.328245 28.858927
v -9.338964 6.028923 29.405703
v 5.875818 -0.328245 26.959967
v 6.289645 6.028923 27.396574
v -8.882091 -0.328245 26.858789
v -9.324455 6.028923 27.289528
vn -0.0068 -0.0862 0.9963
vn -0.9976 -0.0690 -0.0068
vn 0.0068 0.0681 -0.9977
vn 0.9978 -0.0654 0.0068
vn -0.0000 -1.0000 -0.0000
vn -0.0000 1.0000 -0.0000
vt 0.375000 0.000000
vt 0.625000 0.000000
vt 0.625000 0.250000
vt 0.375000 0.250000
vt 0.625000 0.500000
vt 0.375000 0.500000
vt 0.625000 0.750000
vt 0.375000 0.750000
vt 0.625000 1.000000
vt 0.375000 1.000000
vt 0.125000 0.500000
vt 0.125000 0.750000
vt 0.875000 0.500000
vt 0.875000 0.750000
s 0
f 29/24/21 30/25/21 32/26/21 31/27/21
f 31/27/22 32/26/22 36/28/22 35/29/22
f 35/29/23 36/28/23 34/30/23 33/31/23
f 33/31/24 34/30/24 30/32/24 29/33/24
f 31/34/25 35/29/25 33/31/25 29/35/25
f 36/28/26 32/36/26 30/37/26 34/30/26
o Cube.001
v 7.879294 -0.328245 24.017181
v 8.409356 6.028923 24.283060
v 7.879294 -0.328245 17.342388
v 8.409356 6.028923 17.221022
v 9.879294 -0.328245 24.017181
v 10.525388 6.028923 24.283060
v 9.879294 -0.328245 17.342388
v 10.525388 6.028923 17.221022
vn -0.9965 0.0831 -0.0000
vn -0.0000 -0.0191 -0.9998
vn 0.9949 -0.1011 -0.0000
vn -0.0000 -0.0418 0.9991
vn -0.0000 -1.0000 -0.0000
vn -0.0000 1.0000 -0.0000
vt 0.375000 0.000000
vt 0.625000 0.000000
vt 0.625000 0.250000
vt 0.375000 0.250000
vt 0.625000 0.500000
vt 0.375000 0.500000
vt 0.625000 0.750000
vt 0.375000 0.750000
vt 0.625000 1.000000
vt 0.375000 1.000000
vt 0.125000 0.500000
vt 0.125000 0.750000
vt 0.875000 0.500000
vt 0.875000 0.750000
s 0
f 37/38/27 38/39/27 40/40/27 39/41/27
f 39/41/28 40/40/28 44/42/28 43/43/28
f 43/43/29 44/42/29 42/44/29 41/45/29
f 41/45/30 42/44/30 38/46/30 37/47/30
f 39/48/31 43/43/31 41/45/31 37/49/31
f 44/42/32 40/50/32 38/51/32 42/44/32
o Cube.002
v -12.298226 -0.328245 17.307774
v -12.938781 6.028923 17.184402
v -12.298226 -0.328245 10.632979
v -12.938781 6.028923 10.122364
v -10.298226 -0.328245 17.307774
v -10.822749 6.028923 17.184402
v -10.298226 -0.328245 10.632979
v -10.822749 6.028923 10.122364
vn -0.9950 -0.1003 -0.0000
vn -0.0000 -0.0801 -0.9968
vn 0.9966 0.0822 -0.0000
vn -0.0000 0.0194 0.9998
vn -0.0000 -1.0000 -0.0000
vn -0.0000 1.0000 -0.0000
vt 0.375000 0.000000
vt 0.625000 0.000000
vt 0.625000 0.250000
vt 0.375000 0.250000
vt 0.625000 0.500000
vt 0.375000 0.500000
vt 0.625000 0.750000
vt 0.375000 0.750000
vt 0.625000 1.000000
vt 0.375000 1.000000
vt 0.125000 0.500000
vt 0.125000 0.750000
vt 0.875000 0.500000
vt 0.875000 0.750000
s 0
f 45/52/33 46/53/33 48/54/33 47/55/33
f 47/55/34 48/54/34 52/56/34 51/57/34
f 51/57/35 52/56/35 50/58/35 49/59/35
f 49/59/36 50/58/36 46/60/36 45/61/36
f 47/62/37 51/57/37 49/59/37 45/63/37
f 52/56/38 48/64/38 46/65/38 50/58/38
o Cube.003
v 7.941148 -0.328245 17.269609
v 8.474797 6.028923 17.144022
v 7.941148 -0.328245 10.594814
v 8.474797 6.028923 10.081984
v 9.941148 -0.328245 17.269609
v 10.590829 6.028923 17.144022
v 9.941148 -0.328245 10.594814
v 10.590829 6.028923 10.081984
vn -0.9965 0.0837 -0.0000
vn -0.0000 -0.0804 -0.9968
vn 0.9948 -0.1017 -0.0000
vn -0.0000 0.0198 0.9998
vn -0.0000 -1.0000 -0.0000
vn -0.0000 1.0000 -0.0000
vt 0.375000 0.000000
vt 0.625000 0.000000
vt 0.625000 0.250000
vt 0.375000 0.250000
vt 0.625000 0.500000
vt 0.375000 0.500000
vt 0.625000 0.750000
vt 0.375000 0.750000
vt 0.625000 1.000000
vt 0.375000 1.000000
vt 0.125000 0.500000
vt 0.125000 0.750000
vt 0.875000 0.500000
vt 0.875000 0.750000
s 0
f 53/66/39 54/67/39 56/68/39 55/69/39
f 55/69/40 56/68/40 60/70/40 59/71/40
f 59/71/41 60/70/41 58/72/41 57/73/41
f 57/73/42 58/72/42 54/74/42 53/75/42
f 55/76/43 59/71/43 57/73/43 53/77/43
f 60/70/44 56/78/44 54/79/44 58/72/44
o Cube.004
v -12.298226 -0.328245 24.017181
v -12.938781 6.028923 24.283060
v -12.298226 -0.328245 17.342388
v -12.938781 6.028923 17.221022
v -10.298226 -0.328245 24.017181
v -10.822749 6.028923 24.283060
v -10.298226 -0.328245 17.342388
v -10.822749 6.028923 17.221022
vn -0.9950 -0.1003 -0.0000
vn -0.0000 -0.0191 -0.9998
vn 0.9966 0.0822 -0.0000
vn -0.0000 -0.0418 0.9991
vn -0.0000 -1.0000 -0.0000
vn -0.0000 1.0000 -0.0000
vt 0.375000 0.000000
vt 0.625000 0.000000
vt 0.625000 0.250000
vt 0.375000 0.250000
vt 0.625000 0.500000
vt 0.375000 0.500000
vt 0.625000 0.750000
vt 0.375000 0.750000
vt 0.625000 1.000000
vt 0.375000 1.000000
vt 0.125000 0.500000
vt 0.125000 0.750000
vt 0.875000 0.500000
vt 0.875000 0.750000
s 0
f 61/80/45 62/81/45 64/82/45 63/83/45
f 63/83/46 64/82/46 68/84/46 67/85/46
f 67/85/47 68/84/47 66/86/47 65/87/47
f 65/87/48 66/86/48 62/88/48 61/89/48
f 63/90/49 67/85/49 65/87/49 61/91/49
f 68/84/50 64/92/50 62/93/50 66/86/50
