# Blender 4.0.2
# www.blender.org
mtllib gu.mtl
o Cube
v 0.369690 -0.054202 0.041437
v 0.397814 0.054202 0.013313
v 0.403029 -0.054202 -0.076198
v 0.365934 0.045194 -0.361515
v 0.452564 -0.054202 0.041437
v 0.424440 0.054202 0.013313
v 0.419226 -0.054202 -0.076198
v 0.456321 0.045194 -0.361515
v 0.393032 -0.054202 -0.111989
v 0.356925 -0.054202 0.054202
v 0.429223 -0.054202 -0.111989
v 0.465329 -0.054202 0.054202
v 0.369690 -0.237136 -0.007851
v 0.369690 -0.237136 0.075090
v 0.452564 -0.237136 -0.007851
v 0.452564 -0.237136 0.075090
v 0.456321 -0.045194 -0.361515
v 0.365934 -0.045194 -0.361515
v 0.452564 -0.054202 -0.041503
v 0.369690 -0.054202 -0.041503
v 0.418414 -0.132367 -0.101300
v 0.403840 -0.132367 -0.101300
v 0.414388 -0.132367 -0.086887
v 0.407866 -0.132367 -0.086887
v 0.418414 -0.157707 -0.141159
v 0.403840 -0.157707 -0.141159
v 0.414388 -0.157707 -0.126746
v 0.407866 -0.157707 -0.126746
v 0.397814 0.054202 -0.034290
v 0.356925 -0.054202 -0.361515
v 0.465329 -0.054202 -0.361515
v 0.424440 0.054202 -0.034290
v 0.365934 0.045194 -0.139103
v 0.365934 -0.045194 -0.139103
v 0.456321 -0.045194 -0.139103
v 0.456321 0.045194 -0.139103
v 0.356925 0.054202 0.054202
v 0.356925 0.054202 -0.361515
v 0.465329 0.054202 -0.361515
v 0.465329 0.054202 0.054202
v 0.397814 0.096844 0.072494
v 0.397814 0.096844 0.024891
v 0.424440 0.096844 0.024891
v 0.424440 0.096844 0.072494
v 0.424440 0.075523 -0.024549
v 0.424440 0.075523 0.023055
v 0.397814 0.075523 0.023055
v 0.397814 0.075523 -0.024549
vn -1.0000 -0.0000 -0.0000
vn -0.0000 -1.0000 -0.0000
vn 1.0000 -0.0000 -0.0000
vn -0.0000 -0.0000 1.0000
vn 0.9587 -0.0959 0.2678
vn -0.0000 0.1809 0.9835
vn -0.0000 -0.1809 -0.9835
vn -0.8870 -0.3897 0.2477
vn -0.0000 -0.1355 0.9908
vn -0.9587 -0.0959 0.2678
vn -0.0000 -0.1355 -0.9908
vn -0.0000 0.8439 -0.5365
vn 0.8870 -0.3897 0.2477
vn -0.0000 -0.8439 0.5365
vn -0.0000 -0.0000 -1.0000
vn -0.0000 1.0000 -0.0000
vn -0.0000 -0.9183 0.3960
vn -0.0000 0.9183 -0.3960
vn -0.0000 0.4156 -0.9096
vn -0.0000 -0.4156 0.9096
vt 0.625000 0.000000
vt 0.375000 0.250000
vt 0.375000 0.000000
vt 0.604225 0.479225
vt 0.604225 0.270775
vt 0.625000 0.500000
vt 0.375000 0.750000
vt 0.375000 0.500000
vt 0.625000 0.750000
vt 0.375000 1.000000
vt 0.345562 0.742324
vt 0.345562 0.507676
vt 0.719298 0.725411
vt 0.719298 0.524590
vt 0.154438 0.507676
vt 0.125000 0.750000
vt 0.125000 0.500000
vt 0.268677 0.506844
vt 0.291731 0.500832
vt 0.154438 0.742324
vt 0.231323 0.506844
vt 0.208269 0.500832
vt 0.395775 0.270775
vt 0.625000 0.250000
vt 0.395775 0.479225
vt 0.780702 0.524590
vt 0.875000 0.750000
vt 0.780702 0.725410
vt 0.875000 0.500000
vt 0.780702 0.725411
vt 0.780702 0.524590
vt 0.625000 1.000000
s 0
f 37/1/1 30/2/1 10/3/1
f 8/4/2 33/5/2 4/5/2
f 39/6/3 12/7/3 31/8/3
f 40/9/4 10/10/4 12/7/4
f 5/11/3 15/12/3 19/12/3
f 46/13/3 43/14/3 44/13/3
f 20/15/2 10/16/2 30/17/2
f 7/18/5 21/19/5 11/19/5
f 19/12/2 12/7/2 5/11/2
f 5/11/2 10/16/2 1/20/2
f 15/12/2 14/20/2 13/15/2
f 1/20/1 13/15/1 14/20/1
f 1/20/6 16/11/6 5/11/6
f 19/12/7 13/15/7 20/15/7
f 11/19/2 30/17/2 31/8/2
f 3/21/2 19/12/2 20/15/2
f 9/22/2 20/15/2 30/17/2
f 11/19/2 19/12/2 7/18/2
f 22/22/8 28/21/8 24/21/8
f 3/21/9 23/18/9 7/18/9
f 3/21/10 22/22/10 24/21/10
f 11/19/11 22/22/11 9/22/11
f 28/21/2 25/19/2 27/18/2
f 21/19/12 26/22/12 22/22/12
f 21/19/13 27/18/13 25/19/13
f 24/21/14 27/18/14 23/18/14
f 18/23/15 38/24/15 4/5/15
f 17/25/15 30/2/15 18/23/15
f 4/5/15 39/6/15 8/4/15
f 8/4/15 31/8/15 17/25/15
f 33/5/15 35/25/15 34/23/15
f 4/5/3 34/23/3 18/23/3
f 17/25/1 36/4/1 8/4/1
f 18/23/16 35/25/16 17/25/16
f 29/26/16 37/27/16 2/28/16
f 32/14/16 38/29/16 29/26/16
f 32/14/16 40/9/16 39/6/16
f 2/28/16 40/9/16 6/13/16
f 42/26/16 44/13/16 43/14/16
f 47/30/1 42/26/1 48/31/1
f 46/13/17 41/28/17 47/30/17
f 48/31/18 43/14/18 45/14/18
f 29/26/19 45/14/19 32/14/19
f 6/13/20 47/30/20 2/28/20
f 2/28/1 48/31/1 29/26/1
f 6/13/3 45/14/3 46/13/3
f 37/1/1 38/24/1 30/2/1
f 8/4/2 36/4/2 33/5/2
f 39/6/3 40/9/3 12/7/3
f 40/9/4 37/32/4 10/10/4
f 5/11/3 16/11/3 15/12/3
f 46/13/3 45/14/3 43/14/3
f 20/15/2 1/20/2 10/16/2
f 7/18/5 23/18/5 21/19/5
f 19/12/2 31/8/2 12/7/2
f 5/11/2 12/7/2 10/16/2
f 15/12/2 16/11/2 14/20/2
f 1/20/1 20/15/1 13/15/1
f 1/20/6 14/20/6 16/11/6
f 19/12/7 15/12/7 13/15/7
f 11/19/2 9/22/2 30/17/2
f 3/21/2 7/18/2 19/12/2
f 9/22/2 3/21/2 20/15/2
f 11/19/2 31/8/2 19/12/2
f 22/22/8 26/22/8 28/21/8
f 3/21/9 24/21/9 23/18/9
f 3/21/10 9/22/10 22/22/10
f 11/19/11 21/19/11 22/22/11
f 28/21/2 26/22/2 25/19/2
f 21/19/12 25/19/12 26/22/12
f 21/19/13 23/18/13 27/18/13
f 24/21/14 28/21/14 27/18/14
f 18/23/15 30/2/15 38/24/15
f 17/25/15 31/8/15 30/2/15
f 4/5/15 38/24/15 39/6/15
f 8/4/15 39/6/15 31/8/15
f 33/5/15 36/4/15 35/25/15
f 4/5/3 33/5/3 34/23/3
f 17/25/1 35/25/1 36/4/1
f 18/23/16 34/23/16 35/25/16
f 29/26/16 38/29/16 37/27/16
f 32/14/16 39/6/16 38/29/16
f 32/14/16 6/13/16 40/9/16
f 2/28/16 37/27/16 40/9/16
f 42/26/16 41/28/16 44/13/16
f 47/30/1 41/28/1 42/26/1
f 46/13/17 44/13/17 41/28/17
f 48/31/18 42/26/18 43/14/18
f 29/26/19 48/31/19 45/14/19
f 6/13/20 46/13/20 47/30/20
f 2/28/1 47/30/1 48/31/1
f 6/13/3 32/14/3 45/14/3
