# Blender 4.0.2
# www.blender.org
mtllib tazer.mtl
o Cube
v 0.119335 0.037187 -0.070674
v 0.119335 -0.037187 -0.070674
v 0.119335 0.037187 0.070674
v 0.119335 -0.037187 0.070674
v -0.119335 0.031605 -0.060064
v -0.119335 -0.031605 -0.060064
v -0.119335 0.031605 0.060064
v -0.119335 -0.031605 0.060064
v -0.119335 -0.037187 -0.070674
v -0.119335 -0.037187 0.070674
v -0.119335 0.037187 0.070674
v -0.119335 0.037187 -0.070674
v -0.224085 -0.044669 0.127104
v -0.224085 0.044669 0.127104
v -0.224085 0.044669 -0.127104
v -0.224085 -0.044669 -0.127104
v -0.224085 -0.037963 0.108023
v -0.224085 0.037963 0.108023
v -0.224085 0.037963 -0.108023
v -0.224085 -0.037963 -0.108023
v 0.119335 0.000000 -0.070674
v -0.119335 0.000000 0.070674
v 0.119335 0.000000 0.070674
v -0.119335 0.000000 -0.070674
v -0.119335 0.000000 0.060064
v -0.119335 0.000000 -0.060064
v -0.147778 0.000000 0.094938
v -0.147778 0.000000 -0.086183
v -0.147778 0.000000 0.081343
v -0.147778 0.000000 -0.072588
vn -0.0000 1.0000 -0.0000
vn -0.0000 -0.0000 1.0000
vn -1.0000 -0.0000 -0.0000
vn -0.0000 -1.0000 -0.0000
vn 1.0000 -0.0000 -0.0000
vn -0.0000 -0.0000 -1.0000
vn -0.1105 0.9377 -0.3295
vn -0.5990 -0.0000 -0.8007
vn -0.4454 0.8953 -0.0000
vn -0.4454 -0.8953 -0.0000
vn -0.1575 -0.8739 -0.4598
vn 0.4787 -0.0000 -0.8780
vn 0.6490 -0.0000 0.7608
vn -0.4030 -0.0000 0.9152
vn -0.1575 0.8739 0.4598
vn -0.1105 -0.9377 0.3295
vn -0.4156 -0.0136 0.9095
vn 0.4759 -0.1955 0.8575
vn 0.4745 0.0042 -0.8802
vn -0.3507 0.8835 -0.3105
vn -0.3813 -0.8721 0.3065
vn -0.4172 -0.2185 -0.8822
vn -0.1575 0.8739 -0.4598
vn -0.4172 0.2185 -0.8822
vn -0.3813 0.8721 0.3065
vn -0.3507 -0.8835 -0.3105
vn -0.1105 -0.9377 -0.3295
vn 0.4745 -0.0042 -0.8802
vn 0.4759 0.1955 0.8575
vn -0.4156 0.0136 0.9095
vn -0.1105 0.9377 0.3295
vn -0.1575 -0.8739 0.4598
vt 0.875000 0.500000
vt 0.625000 0.750000
vt 0.625000 0.500000
vt 0.500000 1.000000
vt 0.500000 0.750000
vt 0.606235 0.018765
vt 0.500000 0.231235
vt 0.500000 0.018765
vt 0.375000 0.500000
vt 0.125000 0.750000
vt 0.125000 0.500000
vt 0.500000 0.500000
vt 0.625000 0.250000
vt 0.500000 0.250000
vt 0.393765 0.231235
vt 0.375000 0.000000
vt 0.393765 0.018765
vt 0.625000 0.000000
vt 0.606235 0.231235
vt 0.500000 0.000000
vt 0.375000 0.250000
vt 0.625000 1.000000
vt 0.375000 1.000000
vt 0.375000 0.750000
vt 0.875000 0.750000
s 0
usemtl Material
f 12/1/1 3/2/1 1/3/1
f 3/2/2 22/4/2 23/5/2
f 7/6/3 26/7/3 25/8/3
f 2/9/4 10/10/4 9/11/4
f 1/3/5 23/5/5 21/12/5
f 12/13/6 21/12/6 24/14/6
f 6/15/3 10/16/3 8/17/3
f 11/18/7 18/6/7 14/18/7
f 8/17/8 29/8/8 25/8/8
f 7/6/3 12/13/3 5/19/3
f 17/17/9 27/20/9 29/8/9
f 19/19/10 28/14/10 30/7/10
f 10/16/11 17/17/11 8/17/11
f 9/21/12 28/14/12 24/14/12
f 11/22/13 27/4/13 22/4/13
f 5/19/14 30/7/14 26/7/14
f 12/13/15 19/19/15 5/19/15
f 9/21/16 20/15/16 16/21/16
f 6/15/17 30/7/17 20/15/17
f 10/23/18 27/4/18 13/23/18
f 12/13/19 28/14/19 15/13/19
f 20/15/20 28/14/20 16/21/20
f 18/6/21 27/20/21 14/18/21
f 7/6/22 29/8/22 18/6/22
f 24/14/6 2/9/6 9/21/6
f 21/12/5 4/24/5 2/9/5
f 25/8/3 6/15/3 8/17/3
f 23/5/2 10/23/2 4/24/2
f 12/1/1 11/25/1 3/2/1
f 3/2/2 11/22/2 22/4/2
f 7/6/3 5/19/3 26/7/3
f 2/9/4 4/24/4 10/10/4
f 1/3/5 3/2/5 23/5/5
f 12/13/6 1/3/6 21/12/6
f 6/15/3 9/21/3 10/16/3
f 11/18/23 7/6/23 18/6/23
f 8/17/24 17/17/24 29/8/24
f 7/6/3 11/18/3 12/13/3
f 17/17/25 13/16/25 27/20/25
f 19/19/26 15/13/26 28/14/26
f 10/16/27 13/16/27 17/17/27
f 9/21/28 16/21/28 28/14/28
f 11/22/29 14/22/29 27/4/29
f 5/19/30 19/19/30 30/7/30
f 12/13/31 15/13/31 19/19/31
f 9/21/32 6/15/32 20/15/32
f 6/15/14 26/7/14 30/7/14
f 10/23/13 22/4/13 27/4/13
f 12/13/12 24/14/12 28/14/12
f 20/15/9 30/7/9 28/14/9
f 18/6/10 29/8/10 27/20/10
f 7/6/8 25/8/8 29/8/8
f 24/14/6 21/12/6 2/9/6
f 21/12/5 23/5/5 4/24/5
f 25/8/3 26/7/3 6/15/3
f 23/5/2 22/4/2 10/23/2
